<svg xmlns="http://www.w3.org/2000/svg" xmlns:xlink="http://www.w3.org/1999/xlink" width="2000" zoomAndPan="magnify" viewBox="0 0 1500 1499.999933" height="2000" preserveAspectRatio="xMidYMid meet" version="1.0"><path fill="#02403d" d="M 558.199219 251.65625 C 487.199219 255.886719 418.351562 285.746094 369.03125 333.699219 C 295.925781 404.777344 267.210938 507.714844 292.136719 609.363281 C 309.960938 682.046875 354.402344 746.054688 415.578125 787.15625 C 421.378906 791.054688 426.5 794.113281 426.960938 793.953125 C 427.425781 793.792969 491.171875 689.246094 568.625 561.625 C 619.027344 478.226562 669.539062 395 720.15625 311.945312 L 730.871094 294.304688 L 726.929688 291.808594 C 720.960938 288.027344 703.351562 279.175781 693.15625 274.828125 C 658.460938 260.039062 620.808594 252.183594 581.859375 251.605469 C 571.816406 251.457031 561.167969 251.476562 558.199219 251.65625 M 767.613281 325.503906 C 766.128906 327.09375 764.917969 328.789062 764.917969 329.269531 C 764.917969 329.746094 763.609375 331.734375 762.011719 333.6875 C 760.414062 335.636719 759.105469 337.773438 759.105469 338.433594 C 759.105469 339.09375 758.753906 339.988281 758.320312 340.421875 C 757.890625 340.855469 756.355469 343.453125 754.90625 346.191406 C 753.460938 348.933594 751.46875 352.292969 750.480469 353.664062 C 749.488281 355.035156 747.664062 358.28125 746.417969 360.882812 C 745.175781 363.480469 743.785156 365.835938 743.328125 366.117188 C 742.875 366.398438 742.5 367.308594 742.5 368.140625 C 742.5 368.96875 741.941406 370.113281 741.257812 370.683594 C 740.570312 371.25 740.011719 372.261719 740.011719 372.929688 C 740.011719 373.59375 738.703125 375.734375 737.105469 377.6875 C 735.507812 379.636719 734.199219 381.800781 734.199219 382.496094 C 734.199219 383.191406 733.640625 384.226562 732.953125 384.796875 C 732.269531 385.363281 731.710938 386.171875 731.710938 386.59375 C 731.710938 387.363281 728.4375 392.332031 727.417969 393.105469 C 727.109375 393.339844 726.59375 394.648438 726.265625 396.011719 C 725.941406 397.378906 725.210938 399.054688 724.640625 399.738281 C 724.070312 400.425781 723.347656 401.824219 723.035156 402.851562 C 722.722656 403.878906 722.117188 404.71875 721.691406 404.71875 C 721.265625 404.71875 720.917969 405.226562 720.917969 405.847656 C 720.917969 406.464844 719.667969 408.613281 718.144531 410.621094 C 716.621094 412.625 715.117188 415.292969 714.808594 416.550781 C 714.5 417.808594 713.878906 418.832031 713.429688 418.832031 C 712.980469 418.832031 712.613281 419.535156 712.613281 420.394531 C 712.613281 421.25 712.078125 422.394531 711.421875 422.941406 C 710.769531 423.484375 709.996094 425 709.710938 426.304688 C 709.421875 427.613281 708.652344 429.125 707.996094 429.671875 C 707.339844 430.214844 706.804688 431.117188 706.804688 431.675781 C 706.804688 432.230469 706.082031 433.34375 705.199219 434.144531 C 704.3125 434.941406 702.800781 437.148438 701.832031 439.046875 C 699.257812 444.101562 697.976562 446.253906 696.9375 447.296875 C 696.429688 447.804688 696.011719 448.839844 696.011719 449.597656 C 696.011719 450.351562 694.703125 452.683594 693.105469 454.777344 C 691.507812 456.871094 690.199219 459.121094 690.199219 459.777344 C 690.199219 460.433594 689.640625 461.433594 688.953125 462.003906 C 688.269531 462.570312 687.710938 463.429688 687.710938 463.90625 C 687.710938 464.386719 687.1875 465.367188 686.546875 466.089844 C 685.097656 467.722656 680.539062 475.757812 679.324219 478.816406 C 678.824219 480.070312 678.078125 481.097656 677.667969 481.097656 C 677.253906 481.097656 676.917969 481.789062 676.917969 482.636719 C 676.917969 483.484375 675.609375 485.890625 674.011719 487.984375 C 672.414062 490.078125 671.105469 492.351562 671.105469 493.035156 C 671.105469 493.722656 670.726562 494.515625 670.261719 494.804688 C 669.800781 495.089844 668.851562 496.511719 668.15625 497.964844 C 666.894531 500.609375 665.757812 502.585938 662.8125 507.25 C 661.949219 508.617188 660.089844 511.980469 658.683594 514.71875 C 657.277344 517.460938 655.40625 520.820312 654.527344 522.191406 C 652.082031 525.984375 650.542969 528.585938 649.109375 531.324219 C 648.394531 532.695312 647.078125 534.933594 646.1875 536.304688 C 645.292969 537.675781 644.210938 539.597656 643.777344 540.578125 C 643.34375 541.554688 642.683594 542.488281 642.3125 542.652344 C 641.574219 542.972656 639.265625 547.40625 637.941406 551.039062 C 637.484375 552.296875 636.726562 553.324219 636.257812 553.324219 C 635.789062 553.324219 635.40625 554.042969 635.40625 554.925781 C 635.40625 555.804688 634.847656 557.085938 634.164062 557.769531 C 633.476562 558.457031 632.917969 559.386719 632.917969 559.84375 C 632.917969 560.296875 631.609375 562.382812 630.011719 564.476562 C 628.414062 566.570312 627.105469 568.828125 627.105469 569.492188 C 627.105469 570.160156 625.519531 572.976562 623.578125 575.753906 C 621.636719 578.53125 619.828125 581.25 619.558594 581.796875 C 619.289062 582.347656 618.640625 583.542969 618.117188 584.457031 C 617.597656 585.367188 616.640625 587.285156 615.996094 588.714844 C 615.351562 590.140625 614.410156 591.5625 613.90625 591.875 C 613.40625 592.1875 612.992188 593.019531 612.992188 593.726562 C 612.992188 594.429688 611.949219 596.371094 610.671875 598.035156 C 609.398438 599.699219 607.898438 601.992188 607.34375 603.136719 C 606.789062 604.277344 605.597656 606.332031 604.695312 607.699219 C 603.792969 609.070312 602.675781 610.9375 602.214844 611.851562 C 601.753906 612.765625 601.058594 614.074219 600.671875 614.757812 C 599.761719 616.375 598.757812 618.238281 595.527344 624.304688 C 594.070312 627.042969 592.640625 629.472656 592.351562 629.699219 C 591.613281 630.28125 590.230469 632.644531 587.257812 638.417969 C 584.332031 644.09375 583.722656 645.117188 579.992188 650.613281 C 578.507812 652.800781 577.296875 654.921875 577.296875 655.328125 C 577.296875 655.730469 576.734375 656.527344 576.050781 657.097656 C 575.363281 657.664062 574.804688 659 574.804688 660.0625 C 574.804688 661.125 574.320312 662.292969 573.726562 662.660156 C 572.164062 663.621094 570.652344 669.464844 570.652344 674.558594 C 570.652344 680.035156 572.25 689.472656 573.171875 689.472656 C 573.550781 689.472656 574.101562 690.316406 574.394531 691.34375 C 575.167969 694.054688 580.851562 705.472656 582.070312 706.757812 C 582.640625 707.363281 583.105469 708.390625 583.105469 709.039062 C 583.105469 709.691406 584.414062 712.046875 586.011719 714.269531 C 587.609375 716.496094 588.917969 718.738281 588.917969 719.253906 C 588.917969 719.769531 589.285156 720.191406 589.730469 720.191406 C 590.179688 720.191406 590.796875 721.21875 591.105469 722.472656 C 591.414062 723.730469 591.90625 724.945312 592.199219 725.171875 C 593.410156 726.109375 599.710938 736.449219 599.710938 737.5 C 599.710938 738.121094 600.753906 739.992188 602.03125 741.65625 C 603.304688 743.320312 604.8125 745.617188 605.382812 746.757812 C 607.09375 750.1875 608.597656 752.65625 609.574219 753.632812 C 610.085938 754.144531 610.503906 755.050781 610.503906 755.648438 C 610.503906 756.246094 611.808594 758.597656 613.40625 760.871094 C 615.007812 763.144531 616.3125 765.335938 616.3125 765.742188 C 616.3125 766.144531 616.875 766.941406 617.558594 767.511719 C 618.242188 768.082031 618.804688 769.0625 618.804688 769.699219 C 618.804688 770.332031 620.042969 772.621094 621.554688 774.785156 C 623.066406 776.949219 624.566406 779.28125 624.882812 779.964844 C 625.203125 780.648438 626.183594 782.332031 627.0625 783.699219 C 627.9375 785.070312 629.488281 787.871094 630.5 789.925781 C 631.511719 791.980469 632.90625 794.320312 633.59375 795.121094 C 635.046875 796.816406 636.613281 799.4375 637.921875 802.375 C 638.425781 803.515625 639.75 805.636719 640.859375 807.09375 C 641.96875 808.546875 643.253906 810.605469 643.714844 811.664062 C 644.175781 812.722656 645.863281 815.828125 647.464844 818.566406 C 649.070312 821.308594 650.832031 824.484375 651.386719 825.625 C 651.941406 826.765625 652.585938 827.886719 652.824219 828.113281 C 654.097656 829.339844 656.84375 833.808594 657.402344 835.566406 C 657.753906 836.675781 658.554688 838.09375 659.179688 838.722656 C 659.800781 839.34375 660.3125 840.390625 660.3125 841.039062 C 660.3125 841.691406 661.621094 844.042969 663.21875 846.269531 C 664.816406 848.492188 666.125 850.734375 666.125 851.25 C 666.125 851.769531 666.492188 852.191406 666.9375 852.191406 C 667.386719 852.191406 668 853.171875 668.300781 854.371094 C 668.808594 856.394531 672.710938 862.9375 675.644531 866.679688 C 676.34375 867.570312 676.917969 868.972656 676.917969 869.792969 C 676.917969 870.613281 677.253906 871.285156 677.667969 871.285156 C 678.078125 871.285156 678.820312 872.3125 679.316406 873.566406 C 679.808594 874.824219 680.539062 876.410156 680.933594 877.097656 C 681.332031 877.78125 682.34375 879.769531 683.1875 881.515625 C 684.027344 883.261719 685.390625 885.46875 686.214844 886.417969 C 687.035156 887.367188 687.710938 888.605469 687.710938 889.171875 C 687.710938 889.738281 688.222656 890.398438 688.847656 890.636719 C 689.476562 890.878906 690.25 892.132812 690.574219 893.425781 C 690.894531 894.71875 692.15625 897.078125 693.378906 898.667969 C 695.878906 901.925781 697.035156 903.792969 698.78125 907.398438 C 699.445312 908.765625 700.960938 911.175781 702.148438 912.746094 C 703.339844 914.320312 704.3125 916.0625 704.3125 916.621094 C 704.3125 917.179688 704.605469 917.761719 704.960938 917.914062 C 705.320312 918.066406 706.71875 920.429688 708.074219 923.171875 C 709.425781 925.910156 711.003906 928.644531 711.574219 929.25 C 712.148438 929.851562 712.617188 930.894531 712.617188 931.558594 C 712.617188 932.226562 714.484375 935.65625 716.765625 939.179688 C 719.046875 942.703125 720.914062 946.035156 720.914062 946.582031 C 720.917969 947.128906 721.8125 948.542969 722.910156 949.726562 C 724.003906 950.910156 725.964844 954.011719 727.265625 956.617188 C 728.566406 959.226562 730.097656 961.855469 730.667969 962.457031 C 731.242188 963.058594 731.710938 964.003906 731.710938 964.550781 C 731.710938 965.097656 733.015625 967.535156 734.613281 969.960938 C 736.214844 972.386719 737.519531 974.554688 737.519531 974.773438 C 737.519531 974.996094 738.082031 975.738281 738.765625 976.421875 C 739.449219 977.105469 740.011719 978.347656 740.011719 979.179688 C 740.011719 980.011719 740.570312 980.90625 741.257812 981.167969 C 741.941406 981.433594 742.503906 982.035156 742.503906 982.511719 C 742.503906 982.988281 743.808594 985.238281 745.40625 987.511719 C 747.003906 989.785156 748.3125 992.1875 748.3125 992.847656 C 748.3125 993.511719 748.664062 994.269531 749.089844 994.535156 C 749.519531 994.796875 750.828125 997.042969 752 999.515625 C 753.167969 1001.992188 754.523438 1004.261719 755.007812 1004.5625 C 755.492188 1004.859375 756.242188 1005.910156 756.671875 1006.894531 C 758.109375 1010.160156 762.5 1017.589844 763.714844 1018.804688 C 764.375 1019.464844 764.917969 1020.539062 764.917969 1021.191406 C 764.917969 1021.84375 765.261719 1022.378906 765.6875 1022.378906 C 766.382812 1022.378906 770.726562 1030.636719 770.726562 1031.960938 C 770.726562 1032.265625 771.847656 1034.175781 773.21875 1036.203125 C 774.589844 1038.234375 775.710938 1040.210938 775.710938 1040.59375 C 775.710938 1040.980469 776.234375 1041.496094 776.875 1041.742188 C 777.519531 1041.988281 778.296875 1043.335938 778.601562 1044.738281 C 778.910156 1046.136719 779.476562 1047.285156 779.859375 1047.285156 C 780.246094 1047.285156 780.800781 1048.378906 781.09375 1049.71875 C 781.386719 1051.054688 782.164062 1052.597656 782.820312 1053.140625 C 783.476562 1053.683594 784.011719 1054.472656 784.011719 1054.890625 C 784.011719 1055.3125 784.761719 1056.460938 785.675781 1057.441406 C 786.589844 1058.421875 788.074219 1060.742188 788.972656 1062.59375 C 789.875 1064.449219 792.296875 1068.578125 794.359375 1071.773438 C 796.425781 1074.972656 798.117188 1078.070312 798.117188 1078.660156 C 798.121094 1079.25 798.503906 1080.183594 798.96875 1080.734375 C 802.164062 1084.519531 803.105469 1085.804688 803.105469 1086.371094 C 803.105469 1086.726562 803.578125 1087.507812 804.152344 1088.113281 C 804.730469 1088.714844 805.667969 1090.144531 806.238281 1091.285156 C 806.808594 1092.425781 808.953125 1095.789062 811.003906 1098.757812 C 813.050781 1101.722656 815.195312 1104.847656 815.765625 1105.703125 C 816.566406 1106.871094 817.398438 1108.023438 818.257812 1109.152344 C 819.054688 1110.199219 819.710938 1111.378906 819.710938 1111.773438 C 819.710938 1112.167969 821.566406 1114.539062 823.839844 1117.039062 C 826.113281 1119.539062 827.980469 1121.921875 827.988281 1122.332031 C 828.007812 1123.015625 832.769531 1129.230469 835.257812 1131.816406 C 835.839844 1132.417969 836.3125 1133.21875 836.3125 1133.597656 C 836.3125 1134.371094 839.53125 1138.3125 843.597656 1142.527344 C 845.089844 1144.074219 847.320312 1146.90625 848.550781 1148.820312 C 849.78125 1150.738281 854.910156 1156.515625 859.949219 1161.660156 C 864.984375 1166.808594 869.253906 1171.476562 869.433594 1172.039062 C 869.617188 1172.597656 870.269531 1173.355469 870.886719 1173.722656 C 871.503906 1174.085938 872.011719 1174.785156 872.011719 1175.277344 C 872.011719 1176.726562 897.207031 1201.695312 898.667969 1201.699219 C 899.402344 1201.699219 903.808594 1205.433594 908.457031 1210 C 913.109375 1214.566406 917.117188 1218.300781 917.367188 1218.300781 C 917.617188 1218.300781 918.679688 1218.957031 919.726562 1219.753906 C 920.773438 1220.554688 922.445312 1221.769531 923.445312 1222.453125 C 924.441406 1223.136719 927.164062 1225.472656 929.496094 1227.640625 C 931.828125 1229.808594 934.140625 1231.585938 934.628906 1231.589844 C 935.117188 1231.589844 936.941406 1232.898438 938.679688 1234.496094 C 940.417969 1236.089844 942.191406 1237.398438 942.625 1237.398438 C 943.054688 1237.398438 943.40625 1237.765625 943.40625 1238.214844 C 943.40625 1238.667969 944.621094 1239.566406 946.105469 1240.214844 C 947.589844 1240.863281 949.886719 1242.363281 951.214844 1243.546875 C 952.542969 1244.730469 953.902344 1245.699219 954.238281 1245.699219 C 954.570312 1245.699219 956.289062 1246.992188 958.050781 1248.570312 C 959.8125 1250.148438 962.5625 1252.113281 964.160156 1252.929688 C 965.757812 1253.746094 967.703125 1254.976562 968.480469 1255.660156 C 971.425781 1258.257812 972.226562 1258.792969 973.980469 1259.351562 C 974.972656 1259.664062 975.785156 1260.246094 975.785156 1260.640625 C 975.785156 1261.035156 976.625 1261.621094 977.652344 1261.941406 C 978.679688 1262.261719 980.882812 1263.59375 982.546875 1264.902344 C 984.207031 1266.214844 986.300781 1267.285156 987.191406 1267.285156 C 988.082031 1267.285156 989.660156 1268.019531 990.699219 1268.917969 C 991.734375 1269.820312 993.289062 1270.777344 994.148438 1271.050781 C 995.003906 1271.324219 995.707031 1271.894531 995.707031 1272.320312 C 995.707031 1272.746094 996.398438 1273.09375 997.242188 1273.09375 C 998.085938 1273.09375 999.597656 1273.808594 1000.601562 1274.675781 C 1002.132812 1276.007812 1009.371094 1279.824219 1013.972656 1281.730469 C 1014.65625 1282.015625 1018.34375 1283.921875 1022.164062 1285.972656 C 1025.988281 1288.019531 1029.664062 1289.699219 1030.339844 1289.699219 C 1031.015625 1289.699219 1032.558594 1290.210938 1033.769531 1290.839844 C 1034.980469 1291.46875 1037.839844 1292.808594 1040.125 1293.820312 C 1042.40625 1294.828125 1046.429688 1296.742188 1049.0625 1298.074219 C 1051.691406 1299.402344 1054.4375 1300.492188 1055.160156 1300.492188 C 1055.878906 1300.492188 1057.460938 1301.023438 1058.675781 1301.671875 C 1063.453125 1304.234375 1068.539062 1306.300781 1070.066406 1306.308594 C 1070.949219 1306.308594 1072.742188 1306.871094 1074.046875 1307.550781 C 1075.355469 1308.234375 1077.039062 1308.796875 1077.785156 1308.796875 C 1078.53125 1308.800781 1080.097656 1309.300781 1081.265625 1309.910156 C 1082.433594 1310.519531 1084.90625 1311.261719 1086.761719 1311.558594 C 1088.613281 1311.855469 1091.207031 1312.660156 1092.523438 1313.34375 C 1093.839844 1314.03125 1095.769531 1314.59375 1096.8125 1314.597656 C 1097.855469 1314.601562 1099.539062 1315.121094 1100.546875 1315.75 C 1101.558594 1316.382812 1104.050781 1317.144531 1106.082031 1317.449219 C 1108.113281 1317.75 1110.167969 1318.320312 1110.648438 1318.71875 C 1111.128906 1319.113281 1113.386719 1319.824219 1115.671875 1320.292969 C 1117.953125 1320.765625 1121.410156 1321.546875 1123.351562 1322.027344 C 1125.289062 1322.511719 1128.464844 1323.289062 1130.40625 1323.757812 C 1132.347656 1324.226562 1135.800781 1325.191406 1138.085938 1325.90625 C 1140.367188 1326.621094 1144.851562 1327.570312 1148.046875 1328.015625 C 1151.242188 1328.464844 1159.648438 1329.988281 1166.726562 1331.402344 C 1173.804688 1332.820312 1183.144531 1334.230469 1187.480469 1334.535156 C 1191.820312 1334.84375 1198.171875 1335.707031 1201.59375 1336.457031 C 1207.421875 1337.734375 1212.574219 1338.410156 1231.066406 1340.335938 C 1235.175781 1340.765625 1263.195312 1341.019531 1293.332031 1340.902344 C 1337.636719 1340.734375 1348.722656 1340.472656 1351.257812 1339.539062 C 1355.921875 1337.824219 1356.121094 1335.589844 1352.527344 1325.1875 C 1351.9375 1323.476562 1351.199219 1322.074219 1350.890625 1322.074219 C 1350.578125 1322.074219 1349.894531 1320.769531 1349.367188 1319.167969 C 1348.839844 1317.570312 1348.0625 1316.265625 1347.640625 1316.265625 C 1347.222656 1316.265625 1346.878906 1315.722656 1346.878906 1315.058594 C 1346.878906 1314.398438 1346.335938 1313.554688 1345.675781 1313.183594 C 1345.015625 1312.8125 1343.027344 1309.714844 1341.261719 1306.292969 C 1339.496094 1302.875 1337.109375 1298.582031 1335.957031 1296.753906 C 1334.804688 1294.929688 1333.335938 1292.40625 1332.691406 1291.152344 C 1332.046875 1289.898438 1329.84375 1285.601562 1327.796875 1281.605469 C 1325.746094 1277.609375 1323.625 1273.871094 1323.074219 1273.296875 C 1322.527344 1272.722656 1321.84375 1271.507812 1321.554688 1270.597656 C 1321.265625 1269.6875 1320.679688 1268.945312 1320.253906 1268.945312 C 1319.828125 1268.945312 1319.472656 1268.476562 1319.46875 1267.90625 C 1319.460938 1267.335938 1318.34375 1264.8125 1316.988281 1262.300781 C 1315.632812 1259.789062 1314.285156 1257.082031 1314 1256.285156 C 1313.710938 1255.484375 1313.191406 1254.832031 1312.84375 1254.832031 C 1312.492188 1254.832031 1311.140625 1252.683594 1309.835938 1250.058594 C 1308.53125 1247.433594 1305.828125 1242.863281 1303.832031 1239.910156 C 1301.839844 1236.953125 1299.871094 1233.777344 1299.46875 1232.851562 C 1298.992188 1231.785156 1298.46875 1230.738281 1297.898438 1229.71875 L 1296.234375 1226.8125 C 1295.777344 1226.011719 1295.046875 1224.535156 1294.609375 1223.53125 C 1294.171875 1222.527344 1292.78125 1220.097656 1291.515625 1218.136719 C 1288.410156 1213.324219 1287.902344 1212.449219 1285.101562 1207.125 C 1283.769531 1204.597656 1282.394531 1202.527344 1282.042969 1202.527344 C 1281.691406 1202.527344 1281.140625 1201.6875 1280.820312 1200.660156 C 1280.5 1199.632812 1279.976562 1198.605469 1279.660156 1198.378906 C 1278.878906 1197.820312 1274.652344 1188.75 1274.652344 1187.636719 C 1274.652344 1187.152344 1274.371094 1186.75 1274.027344 1186.738281 C 1273.6875 1186.730469 1272.285156 1184.871094 1270.914062 1182.605469 C 1269.546875 1180.339844 1268.144531 1178.476562 1267.800781 1178.46875 C 1267.460938 1178.460938 1267.179688 1178.054688 1267.179688 1177.570312 C 1267.179688 1175.683594 1262.34375 1166.628906 1258.785156 1161.851562 C 1257.59375 1160.253906 1255.714844 1157.074219 1254.609375 1154.792969 C 1253.507812 1152.511719 1251.570312 1149.035156 1250.308594 1147.074219 C 1249.046875 1145.109375 1247.648438 1142.683594 1247.207031 1141.675781 C 1246.761719 1140.671875 1245.664062 1138.730469 1244.761719 1137.359375 C 1243.859375 1135.988281 1242.859375 1134.308594 1242.542969 1133.625 C 1242.222656 1132.9375 1240.726562 1130.605469 1239.210938 1128.441406 C 1237.699219 1126.277344 1236.460938 1123.988281 1236.460938 1123.355469 C 1236.460938 1122.722656 1235.902344 1121.738281 1235.21875 1121.171875 C 1234.53125 1120.601562 1233.972656 1119.804688 1233.972656 1119.398438 C 1233.972656 1118.996094 1232.664062 1116.804688 1231.066406 1114.527344 C 1229.46875 1112.253906 1228.160156 1109.675781 1228.160156 1108.796875 C 1228.160156 1107.914062 1227.859375 1107.070312 1227.488281 1106.917969 C 1227.121094 1106.765625 1225.53125 1104.453125 1223.960938 1101.777344 C 1222.390625 1099.105469 1220.460938 1095.929688 1219.679688 1094.722656 C 1218.894531 1093.515625 1217.71875 1091.410156 1217.066406 1090.039062 C 1216.417969 1088.667969 1214.910156 1086.261719 1213.71875 1084.6875 C 1212.53125 1083.117188 1211.558594 1081.339844 1211.558594 1080.746094 C 1211.558594 1080.148438 1211.191406 1079.660156 1210.742188 1079.660156 C 1210.296875 1079.660156 1209.683594 1078.679688 1209.382812 1077.480469 C 1209.082031 1076.285156 1207.578125 1073.398438 1206.042969 1071.066406 C 1204.511719 1068.738281 1203.253906 1066.214844 1203.253906 1065.460938 C 1203.253906 1064.707031 1202.695312 1063.625 1202.007812 1063.058594 C 1201.324219 1062.488281 1200.765625 1061.550781 1200.765625 1060.96875 C 1200.765625 1060.390625 1200.296875 1059.734375 1199.726562 1059.515625 C 1199.152344 1059.296875 1197.070312 1055.988281 1195.089844 1052.164062 C 1193.113281 1048.335938 1190.78125 1044.085938 1189.914062 1042.71875 C 1189.042969 1041.347656 1187.863281 1039.292969 1187.292969 1038.152344 C 1186.722656 1037.011719 1185.785156 1035.582031 1185.207031 1034.980469 C 1184.632812 1034.375 1184.160156 1033.308594 1184.160156 1032.609375 C 1184.160156 1031.90625 1183.09375 1029.972656 1181.792969 1028.308594 C 1179.574219 1025.472656 1176.53125 1020.21875 1175.476562 1017.398438 C 1175.21875 1016.710938 1174.273438 1015.03125 1173.367188 1013.660156 C 1172.464844 1012.292969 1171.464844 1010.609375 1171.144531 1009.925781 C 1170.828125 1009.242188 1169.328125 1006.910156 1167.816406 1004.746094 C 1166.304688 1002.582031 1165.066406 1000.414062 1165.066406 999.929688 C 1165.066406 998.839844 1161.707031 992.566406 1160.292969 991.019531 C 1159.722656 990.394531 1159.253906 989.347656 1159.253906 988.695312 C 1159.253906 988.046875 1158.890625 987.511719 1158.441406 987.511719 C 1157.992188 987.511719 1157.390625 986.578125 1157.105469 985.433594 C 1156.820312 984.292969 1156.277344 983.359375 1155.90625 983.359375 C 1155.53125 983.359375 1154.058594 981.023438 1152.632812 978.171875 C 1149.300781 971.496094 1147.949219 969.144531 1147.085938 968.507812 C 1145.957031 967.679688 1142.652344 961.144531 1142.652344 959.742188 C 1142.652344 959.035156 1142.285156 958.453125 1141.835938 958.453125 C 1141.390625 958.453125 1140.765625 957.433594 1140.453125 956.1875 C 1140.140625 954.941406 1138.714844 952.234375 1137.28125 950.171875 C 1135.851562 948.105469 1133.949219 944.921875 1133.058594 943.09375 C 1132.171875 941.269531 1131.1875 939.65625 1130.871094 939.515625 C 1130.554688 939.371094 1129.460938 937.503906 1128.4375 935.363281 C 1127.417969 933.222656 1125.339844 929.941406 1123.824219 928.066406 C 1122.304688 926.191406 1121.066406 924.242188 1121.066406 923.734375 C 1121.066406 922.269531 1117.65625 916.113281 1116.847656 916.113281 C 1116.445312 916.113281 1115.886719 915.195312 1115.605469 914.074219 C 1115.324219 912.949219 1114.570312 911.597656 1113.929688 911.066406 C 1113.289062 910.535156 1112.765625 909.363281 1112.765625 908.464844 C 1112.765625 907.566406 1112.019531 905.878906 1111.105469 904.71875 C 1110.191406 903.558594 1109.445312 902.097656 1109.445312 901.472656 C 1109.445312 900.851562 1109.164062 900.335938 1108.820312 900.324219 C 1108.480469 900.316406 1107.078125 898.457031 1105.707031 896.191406 C 1104.339844 893.925781 1102.9375 892.0625 1102.59375 892.054688 C 1102.253906 892.046875 1101.972656 891.566406 1101.972656 890.988281 C 1101.972656 890.414062 1101.226562 888.546875 1100.3125 886.839844 C 1099.398438 885.136719 1098.652344 883.183594 1098.652344 882.496094 C 1098.652344 881.808594 1098.269531 881.246094 1097.800781 881.246094 C 1097.332031 881.246094 1096.582031 880.40625 1096.128906 879.378906 C 1095.675781 878.351562 1094.582031 876.390625 1093.699219 875.019531 C 1092.816406 873.652344 1090.917969 870.289062 1089.484375 867.550781 C 1088.046875 864.808594 1085.976562 861.378906 1084.875 859.925781 C 1083.777344 858.472656 1082.507812 856.417969 1082.050781 855.359375 C 1081.140625 853.246094 1079.410156 850.351562 1078.671875 849.699219 C 1078.410156 849.472656 1077.3125 847.417969 1076.230469 845.132812 C 1075.144531 842.851562 1073.023438 839.210938 1071.511719 837.046875 C 1070 834.882812 1068.765625 832.59375 1068.765625 831.960938 C 1068.765625 831.328125 1068.203125 830.34375 1067.519531 829.777344 C 1066.835938 829.207031 1066.273438 828.351562 1066.273438 827.871094 C 1066.273438 827.390625 1065.652344 826.316406 1064.894531 825.476562 C 1063.320312 823.734375 1062.347656 822.070312 1059.175781 815.664062 C 1057.929688 813.152344 1055.304688 808.625 1053.335938 805.605469 C 1051.367188 802.582031 1049.511719 799.128906 1049.210938 797.925781 C 1048.90625 796.722656 1048.410156 795.738281 1048.101562 795.738281 C 1047.796875 795.738281 1047.097656 794.710938 1046.546875 793.453125 C 1046 792.199219 1044.800781 790.050781 1043.882812 788.679688 C 1042.96875 787.3125 1041.78125 785.351562 1041.246094 784.324219 C 1040.710938 783.296875 1039.988281 782.453125 1039.640625 782.453125 C 1039.292969 782.453125 1038.769531 781.359375 1038.476562 780.023438 C 1038.183594 778.683594 1037.40625 777.144531 1036.75 776.597656 C 1036.09375 776.054688 1035.558594 775.09375 1035.558594 774.46875 C 1035.558594 773.835938 1035.214844 773.324219 1034.796875 773.324219 C 1034.378906 773.324219 1032.859375 770.988281 1031.425781 768.132812 C 1029.988281 765.28125 1028.09375 761.824219 1027.214844 760.453125 C 1026.332031 759.085938 1025.398438 757.402344 1025.136719 756.71875 C 1023.707031 752.988281 1021.601562 749.285156 1019.183594 746.257812 C 1017.6875 744.382812 1016.464844 742.28125 1016.464844 741.585938 C 1016.464844 740.886719 1015.902344 739.855469 1015.21875 739.285156 C 1014.535156 738.714844 1013.972656 737.761719 1013.972656 737.167969 C 1013.972656 736.570312 1013.476562 735.585938 1012.871094 734.980469 C 1011.757812 733.867188 1011.25 732.976562 1006.578125 723.925781 C 1003.988281 718.910156 1002.285156 715.976562 1001.519531 715.210938 C 1000.480469 714.167969 997.597656 709.433594 995.707031 705.660156 C 994.566406 703.378906 993.410156 701.324219 993.140625 701.097656 C 992.609375 700.652344 991.867188 699.28125 987.550781 690.78125 C 986.03125 687.789062 984.441406 685.128906 984.023438 684.867188 C 983.601562 684.609375 983.257812 683.839844 983.257812 683.164062 C 983.257812 681.996094 980.726562 677.953125 978.484375 675.53125 C 977.914062 674.917969 977.445312 673.878906 977.445312 673.226562 C 977.445312 672.574219 977.109375 672.039062 976.695312 672.039062 C 976.285156 672.039062 975.527344 671.011719 975.011719 669.757812 C 974.03125 667.375 973.511719 666.472656 969.710938 660.585938 C 968.445312 658.621094 967.042969 656.195312 966.597656 655.1875 C 966.148438 654.183594 964.5 651.121094 962.929688 648.378906 C 961.363281 645.640625 959.601562 642.464844 959.015625 641.324219 C 958.433594 640.183594 957.484375 638.753906 956.90625 638.152344 C 956.332031 637.546875 955.859375 636.539062 955.859375 635.910156 C 955.859375 635.28125 954.789062 633.160156 953.484375 631.195312 C 952.175781 629.230469 950.214844 625.945312 949.125 623.890625 C 948.035156 621.835938 946.878906 620.035156 946.554688 619.886719 C 946.226562 619.742188 944.734375 617.164062 943.230469 614.15625 C 939.257812 606.210938 938.921875 605.625 938.289062 605.625 C 937.636719 605.625 933.445312 597.054688 933.445312 595.714844 C 933.445312 595.230469 933.109375 594.832031 932.695312 594.832031 C 932.285156 594.832031 931.527344 593.804688 931.011719 592.550781 C 929.859375 589.75 928.363281 587.167969 926.804688 585.285156 C 925.382812 583.574219 924.59375 582.160156 920.539062 574.078125 C 918.820312 570.652344 916.851562 567.195312 916.164062 566.394531 C 914.777344 564.777344 913.402344 562.472656 911.582031 558.71875 C 910.917969 557.351562 909.402344 554.941406 908.210938 553.371094 C 907.023438 551.796875 906.050781 550.070312 906.050781 549.527344 C 906.050781 548.988281 905.488281 548.082031 904.804688 547.511719 C 904.117188 546.945312 903.558594 545.996094 903.558594 545.40625 C 903.558594 544.820312 902.25 542.351562 900.652344 539.925781 C 899.054688 537.496094 897.746094 534.894531 897.746094 534.140625 C 897.746094 533.386719 897.1875 532.308594 896.5 531.738281 C 895.816406 531.171875 895.257812 530.191406 895.257812 529.5625 C 895.257812 528.933594 894.914062 528.417969 894.496094 528.417969 C 894.078125 528.417969 892.558594 526.082031 891.121094 523.230469 C 887.203125 515.449219 884.832031 511.296875 882.890625 508.832031 C 881.929688 507.609375 881.144531 506.128906 881.144531 505.546875 C 881.144531 504.960938 880.828125 504.355469 880.441406 504.203125 C 880.054688 504.050781 879.214844 502.910156 878.574219 501.667969 C 873.4375 491.722656 872.390625 489.765625 872.019531 489.398438 C 870.589844 487.996094 867.859375 483.472656 867.859375 482.5 C 867.859375 481.867188 866.648438 479.703125 865.171875 477.695312 C 862.136719 473.574219 860.6875 471.292969 859.945312 469.476562 C 859.585938 468.621094 859.175781 467.792969 858.722656 466.984375 C 858.324219 466.300781 856.964844 463.683594 855.699219 461.171875 C 854.429688 458.660156 852.433594 455.300781 851.261719 453.703125 C 848.9375 450.53125 845.445312 443.664062 845.445312 442.265625 C 845.445312 441.78125 845.15625 441.261719 844.804688 441.109375 C 843.328125 440.472656 836.417969 428.917969 829.25 415.097656 C 828.539062 413.726562 827.246094 411.488281 826.378906 410.117188 C 825.511719 408.746094 823.972656 405.945312 822.960938 403.890625 C 821.949219 401.835938 820.421875 399.375 819.570312 398.425781 C 818.066406 396.746094 814.226562 389.820312 808.902344 379.191406 C 807.476562 376.339844 805.960938 374.003906 805.535156 374.003906 C 805.113281 374.003906 804.765625 373.535156 804.765625 372.960938 C 804.765625 372.386719 803.179688 369.546875 801.238281 366.652344 C 796.5625 359.679688 796.832031 360.148438 794.367188 354.71875 C 793.179688 352.101562 791.859375 349.746094 791.429688 349.480469 C 791.003906 349.21875 790.652344 348.242188 790.652344 347.3125 C 790.652344 346.382812 789.90625 344.675781 788.992188 343.511719 C 788.078125 342.351562 787.332031 340.890625 787.332031 340.269531 C 787.332031 339.644531 786.996094 339.136719 786.582031 339.136719 C 786.171875 339.136719 785.410156 338.109375 784.890625 336.851562 C 783.253906 332.902344 781.460938 330.003906 780.644531 330.003906 C 780.429688 330.003906 780.246094 329.929688 780.09375 329.78125 C 779.941406 329.628906 779.863281 329.445312 779.859375 329.230469 C 779.859375 328.804688 779.019531 327.140625 777.992188 325.53125 C 776.4375 323.089844 775.640625 322.601562 773.21875 322.605469 C 770.972656 322.609375 769.699219 323.269531 767.617188 325.503906 M 529.480469 742.628906 C 527.636719 743.328125 522.503906 749.308594 522.503906 750.761719 C 522.503906 751.234375 521.976562 752.148438 521.328125 752.792969 C 520.066406 754.054688 516.691406 760.046875 516.691406 761.023438 C 516.691406 761.351562 515.570312 763.277344 514.199219 765.308594 C 512.832031 767.335938 511.710938 769.523438 511.710938 770.160156 C 511.710938 770.800781 511.136719 772.054688 510.4375 772.945312 C 507.996094 776.0625 503.53125 783.25 503 784.921875 C 502.707031 785.847656 502.136719 786.605469 501.730469 786.605469 C 501.324219 786.605469 500.75 787.898438 500.453125 789.480469 C 500.15625 791.0625 499.394531 792.789062 498.753906 793.320312 C 498.117188 793.847656 497.597656 794.589844 497.597656 794.96875 C 497.597656 795.34375 496.488281 797.296875 495.136719 799.300781 C 493.78125 801.308594 492.28125 803.847656 491.800781 804.949219 C 491.324219 806.046875 490.191406 808.066406 489.285156 809.4375 C 488.378906 810.804688 487.230469 812.953125 486.726562 814.210938 C 486.222656 815.464844 485.535156 816.492188 485.199219 816.492188 C 484.859375 816.492188 483.515625 818.640625 482.210938 821.265625 C 480.902344 823.890625 478.972656 827.433594 477.921875 829.136719 C 476.871094 830.839844 476.011719 832.710938 476.011719 833.292969 C 476.011719 834.480469 469.386719 844.980469 468.367188 845.410156 C 468.003906 845.5625 467.710938 846.375 467.710938 847.21875 C 467.710938 848.0625 467.242188 849.261719 466.671875 849.882812 C 465.171875 851.519531 463.699219 853.890625 462.316406 856.886719 C 461.652344 858.328125 460.820312 859.636719 460.46875 859.792969 C 460.113281 859.949219 458.765625 862.132812 457.476562 864.644531 C 456.183594 867.15625 454.414062 870.332031 453.539062 871.699219 C 452.667969 873.070312 451.515625 875.03125 450.980469 876.058594 C 450.449219 877.085938 449.695312 877.925781 449.3125 877.925781 C 448.929688 877.925781 448.617188 878.621094 448.617188 879.476562 C 448.617188 880.328125 447.867188 881.972656 446.957031 883.132812 C 446.042969 884.292969 445.296875 885.851562 445.296875 886.59375 C 445.296875 887.335938 444.734375 888.15625 444.050781 888.417969 C 443.367188 888.679688 442.804688 889.433594 442.804688 890.085938 C 442.804688 891.222656 440.246094 895.289062 438.03125 897.679688 C 437.460938 898.296875 436.992188 899.53125 436.992188 900.425781 C 436.992188 901.320312 436.433594 902.269531 435.75 902.53125 C 435.0625 902.792969 434.503906 903.671875 434.503906 904.480469 C 434.503906 905.289062 433.941406 906.414062 433.257812 906.984375 C 432.574219 907.550781 432.011719 908.445312 432.011719 908.972656 C 432.011719 909.496094 430.734375 911.867188 429.171875 914.242188 C 427.609375 916.617188 426.085938 919.316406 425.792969 920.242188 C 425.5 921.167969 424.910156 921.925781 424.484375 921.925781 C 424.058594 921.925781 423.710938 922.515625 423.710938 923.238281 C 423.710938 923.960938 422.453125 926.109375 420.917969 928.011719 C 419.382812 929.917969 417.882812 932.5 417.582031 933.757812 C 417.28125 935.011719 416.671875 936.039062 416.222656 936.039062 C 415.773438 936.039062 415.410156 936.613281 415.410156 937.316406 C 415.410156 938.019531 414.71875 939.609375 413.875 940.847656 C 410.027344 946.492188 407.386719 950.929688 405.28125 955.277344 C 404.03125 957.867188 402.621094 960.222656 402.152344 960.515625 C 401.679688 960.804688 401.296875 961.597656 401.296875 962.273438 C 401.296875 963.296875 398.660156 967.726562 397.144531 969.25 C 396.074219 970.328125 392.992188 976.777344 392.992188 977.949219 C 392.992188 978.667969 392.433594 979.476562 391.75 979.738281 C 391.0625 980.003906 390.503906 980.644531 390.503906 981.167969 C 390.503906 981.691406 389.195312 983.960938 387.597656 986.207031 C 386 988.453125 384.691406 990.957031 384.691406 991.765625 C 384.691406 992.578125 384.222656 993.539062 383.652344 993.902344 C 383.082031 994.269531 381.710938 996.433594 380.605469 998.71875 C 379.5 1001 377.695312 1004.066406 376.59375 1005.53125 C 374.234375 1008.660156 371.410156 1014.027344 371.410156 1015.371094 C 371.410156 1015.890625 370.660156 1017.175781 369.75 1018.226562 C 368.835938 1019.28125 368.089844 1020.5 368.089844 1020.933594 C 368.089844 1021.367188 367.023438 1023.085938 365.722656 1024.75 C 364.417969 1026.414062 363.105469 1028.800781 362.800781 1030.058594 C 362.496094 1031.3125 361.878906 1032.339844 361.429688 1032.339844 C 360.984375 1032.339844 360.617188 1032.847656 360.617188 1033.46875 C 360.617188 1034.085938 359.394531 1036.234375 357.898438 1038.242188 C 356.402344 1040.246094 354.113281 1044.042969 352.808594 1046.679688 C 351.503906 1049.316406 350.113281 1051.671875 349.714844 1051.917969 C 349.320312 1052.164062 348.992188 1052.941406 348.992188 1053.648438 C 348.992188 1054.355469 347.964844 1056.292969 346.707031 1057.957031 C 345.449219 1059.621094 343.300781 1063.128906 341.933594 1065.753906 C 340.566406 1068.378906 339.167969 1070.527344 338.824219 1070.527344 C 338.480469 1070.527344 338.203125 1071.101562 338.203125 1071.800781 C 338.203125 1072.5 337.675781 1073.273438 337.03125 1073.523438 C 336.386719 1073.769531 335.613281 1074.957031 335.3125 1076.160156 C 335.007812 1077.367188 333.722656 1079.890625 332.457031 1081.765625 C 331.191406 1083.644531 329.902344 1086.179688 329.597656 1087.402344 C 329.289062 1088.625 328.671875 1089.625 328.222656 1089.625 C 327.773438 1089.625 327.410156 1090.324219 327.410156 1091.183594 C 327.410156 1092.039062 326.808594 1093.238281 326.078125 1093.847656 C 325.34375 1094.453125 324.414062 1095.714844 324.003906 1096.648438 C 323.597656 1097.578125 322.945312 1098.902344 322.5625 1099.585938 C 320.546875 1103.164062 319.800781 1104.578125 317.414062 1109.339844 C 315.988281 1112.195312 314.476562 1114.53125 314.058594 1114.53125 C 313.640625 1114.53125 313.296875 1115.101562 313.296875 1115.800781 C 313.296875 1116.5 312.757812 1117.277344 312.101562 1117.53125 C 311.445312 1117.78125 310.667969 1119.078125 310.375 1120.410156 C 310.082031 1121.742188 309.582031 1122.832031 309.261719 1122.832031 C 308.941406 1122.832031 308.238281 1123.859375 307.695312 1125.113281 C 307.15625 1126.371094 306.355469 1127.957031 305.914062 1128.644531 C 305.472656 1129.328125 304.894531 1130.449219 304.628906 1131.132812 C 304.363281 1131.816406 303.398438 1133.5 302.488281 1134.871094 C 301.578125 1136.238281 299.6875 1139.601562 298.289062 1142.339844 C 296.890625 1145.082031 295.117188 1148.308594 294.351562 1149.515625 C 291.484375 1154.023438 287.082031 1161.328125 285.261719 1164.597656 C 284.226562 1166.457031 282.882812 1168.5625 282.273438 1169.273438 C 281.664062 1169.984375 280.316406 1172.25 279.277344 1174.304688 C 278.242188 1176.359375 277.070312 1178.597656 276.675781 1179.285156 C 276.285156 1179.96875 275.433594 1181.699219 274.789062 1183.125 C 274.144531 1184.554688 273.203125 1185.976562 272.703125 1186.289062 C 272.199219 1186.597656 271.785156 1187.417969 271.785156 1188.105469 C 271.785156 1188.792969 270.863281 1190.570312 269.734375 1192.050781 C 268.605469 1193.53125 266.507812 1196.960938 265.074219 1199.671875 C 263.640625 1202.386719 261.660156 1205.726562 260.671875 1207.09375 C 259.679688 1208.464844 257.761719 1211.777344 256.402344 1214.457031 C 252.644531 1221.882812 251.667969 1223.597656 250.5625 1224.703125 C 250.003906 1225.257812 248.726562 1227.316406 247.722656 1229.273438 C 245.535156 1233.53125 244.652344 1235.054688 241.675781 1239.664062 C 240.429688 1241.59375 239.410156 1243.472656 239.410156 1243.832031 C 239.410156 1244.195312 238.101562 1246.476562 236.503906 1248.902344 C 234.90625 1251.328125 233.597656 1253.6875 233.597656 1254.140625 C 233.597656 1254.59375 232.289062 1256.5625 230.691406 1258.511719 C 229.09375 1260.464844 227.785156 1262.652344 227.785156 1263.375 C 227.785156 1264.101562 227.441406 1264.90625 227.019531 1265.167969 C 226.601562 1265.429688 225.070312 1267.972656 223.625 1270.820312 C 220.652344 1276.671875 219.957031 1277.894531 216.769531 1282.832031 C 215.523438 1284.765625 214.503906 1286.820312 214.503906 1287.40625 C 214.503906 1287.988281 212.914062 1290.835938 210.976562 1293.730469 C 206.878906 1299.839844 207.292969 1299.164062 202.832031 1306.925781 C 200.929688 1310.234375 199.039062 1312.945312 198.636719 1312.945312 C 198.230469 1312.945312 197.898438 1313.535156 197.898438 1314.257812 C 197.898438 1314.980469 196.667969 1317.6875 195.167969 1320.277344 C 192.027344 1325.679688 189.589844 1331.765625 189.617188 1334.140625 C 189.625 1335.039062 190.351562 1336.703125 191.222656 1337.839844 C 192.628906 1339.671875 193.652344 1339.972656 200.128906 1340.46875 C 210.667969 1341.269531 387.511719 1341.183594 398.390625 1340.371094 C 407.804688 1339.664062 415.851562 1338.675781 429.523438 1336.542969 C 448.339844 1333.609375 450.777344 1333.152344 452.351562 1332.242188 C 453.265625 1331.714844 456.066406 1330.917969 458.578125 1330.46875 C 465.019531 1329.316406 472.082031 1327.441406 474.148438 1326.335938 C 475.113281 1325.820312 477.039062 1325.398438 478.429688 1325.398438 C 479.820312 1325.398438 483.75 1324.089844 487.164062 1322.492188 C 490.578125 1320.894531 493.855469 1319.574219 494.445312 1319.558594 C 495.039062 1319.542969 496.246094 1318.984375 497.132812 1318.3125 C 498.019531 1317.644531 499.5625 1317.09375 500.558594 1317.09375 C 501.558594 1317.09375 502.839844 1316.535156 503.410156 1315.847656 C 503.976562 1315.164062 504.945312 1314.605469 505.558594 1314.605469 C 506.566406 1314.605469 511.027344 1312.640625 515.417969 1310.269531 C 516.3125 1309.785156 520.238281 1307.738281 524.132812 1305.722656 C 528.03125 1303.707031 532.214844 1301.425781 533.433594 1300.652344 C 536.628906 1298.621094 544.957031 1293.09375 547.582031 1291.265625 C 548.820312 1290.402344 550.21875 1289.699219 550.695312 1289.699219 C 551.171875 1289.699219 551.558594 1289.304688 551.558594 1288.824219 C 551.558594 1288.347656 552.894531 1287.394531 554.523438 1286.714844 C 556.15625 1286.035156 559.882812 1283.25 562.804688 1280.53125 C 565.730469 1277.8125 568.539062 1275.585938 569.054688 1275.585938 C 570.519531 1275.585938 602.15625 1244.046875 604.785156 1239.964844 C 606.078125 1237.953125 609.332031 1234.03125 612.011719 1231.25 C 614.691406 1228.464844 617.039062 1225.816406 617.234375 1225.359375 C 618.21875 1223.035156 621.554688 1218.300781 622.207031 1218.300781 C 622.617188 1218.300781 622.957031 1217.914062 622.957031 1217.4375 C 622.957031 1216.664062 625.996094 1211.875 627.148438 1210.832031 C 627.402344 1210.601562 628.464844 1209.003906 629.515625 1207.28125 C 630.5625 1205.554688 631.910156 1203.652344 632.511719 1203.054688 C 633.980469 1201.582031 637.066406 1195.753906 637.066406 1194.449219 C 637.066406 1193.871094 637.417969 1193.398438 637.84375 1193.398438 C 638.269531 1193.398438 638.875 1192.554688 639.1875 1191.53125 C 639.5 1190.503906 640.222656 1189.101562 640.789062 1188.417969 C 641.359375 1187.730469 642.070312 1186.144531 642.367188 1184.886719 C 642.667969 1183.632812 643.277344 1182.605469 643.726562 1182.605469 C 644.171875 1182.605469 644.539062 1182.054688 644.539062 1181.386719 C 644.539062 1180.128906 647.46875 1173.929688 649.011719 1171.921875 C 649.914062 1170.753906 651.511719 1166.734375 652.917969 1162.101562 C 653.363281 1160.640625 654.273438 1158.398438 654.941406 1157.117188 C 655.605469 1155.839844 656.167969 1153.859375 656.183594 1152.71875 C 656.203125 1151.578125 656.761719 1149.917969 657.433594 1149.03125 C 658.105469 1148.144531 658.652344 1146.640625 658.652344 1145.6875 C 658.652344 1144.734375 659.179688 1143.203125 659.820312 1142.289062 C 660.460938 1141.371094 661.238281 1138.765625 661.542969 1136.5 C 661.84375 1134.230469 662.433594 1131.445312 662.851562 1130.304688 C 664.273438 1126.402344 667.464844 1107.066406 669.429688 1090.453125 C 670.492188 1081.433594 670.4375 1037.394531 669.351562 1031.925781 C 668.898438 1029.644531 668.019531 1023.480469 667.398438 1018.226562 C 666.777344 1012.976562 665.882812 1007.375 665.414062 1005.773438 C 664.070312 1001.226562 662.082031 991.675781 661.480469 986.902344 C 661.179688 984.515625 660.421875 982.132812 659.792969 981.613281 C 659.167969 981.09375 658.652344 980.085938 658.652344 979.375 C 658.652344 977.457031 655.113281 967.214844 654.335938 966.894531 C 653.96875 966.742188 653.433594 965.15625 653.148438 963.367188 C 652.863281 961.578125 652.332031 960.113281 651.972656 960.113281 C 651.609375 960.113281 651.078125 958.902344 650.789062 957.417969 C 650.003906 953.402344 644.890625 941.167969 641.15625 934.378906 C 640.433594 933.0625 638.644531 929.445312 635.007812 921.925781 C 633.65625 919.140625 632.269531 916.375 630.84375 913.625 C 629.765625 911.570312 627.902344 907.835938 626.699219 905.324219 C 624.6875 901.117188 623.167969 898.261719 619.398438 891.625 C 618.621094 890.253906 617.605469 888.199219 617.136719 887.058594 C 616.671875 885.917969 615.640625 883.988281 614.847656 882.773438 C 614.054688 881.558594 612.359375 878.757812 611.082031 876.546875 C 609.800781 874.335938 608.40625 871.96875 607.988281 871.285156 C 607.566406 870.601562 606.359375 868.359375 605.308594 866.304688 C 604.257812 864.25 602.308594 860.886719 600.976562 858.832031 C 599.644531 856.777344 597.558594 853.230469 596.347656 850.945312 C 592.820312 844.3125 591.929688 842.769531 590.082031 840.140625 C 589.125 838.777344 587.15625 835.234375 585.703125 832.265625 C 582.496094 825.707031 578.074219 817.890625 577.257812 817.324219 C 576.925781 817.09375 575.457031 814.667969 573.988281 811.925781 C 572.519531 809.1875 570.074219 805.050781 568.550781 802.734375 C 567.023438 800.417969 565.53125 797.535156 565.226562 796.332031 C 564.925781 795.128906 564.15625 793.710938 563.515625 793.179688 C 562.875 792.648438 562.351562 791.882812 562.351562 791.476562 C 562.351562 791.070312 561.042969 788.878906 559.445312 786.605469 C 557.847656 784.332031 556.539062 782.175781 556.539062 781.808594 C 556.539062 780.332031 551.472656 771.605469 549.285156 769.320312 C 548.710938 768.71875 548.238281 767.503906 548.238281 766.621094 C 548.238281 765.742188 547.902344 765.023438 547.488281 765.023438 C 547.078125 765.023438 546.332031 763.996094 545.832031 762.738281 C 545.335938 761.484375 543.609375 758.214844 542.003906 755.472656 C 540.394531 752.734375 538.617188 749.5625 538.054688 748.429688 C 535.925781 744.136719 532.1875 741.605469 529.480469 742.628906 " fill-opacity="1" fill-rule="evenodd"/></svg>